<?xml version="1.0" encoding="utf-8"?>
<!-- Generator: Adobe Illustrator 19.1.0, SVG Export Plug-In . SVG Version: 6.00 Build 0)  -->
<svg version="1.1" id="Layer_1" xmlns="http://www.w3.org/2000/svg" xmlns:xlink="http://www.w3.org/1999/xlink" x="0px" y="0px"
	 viewBox="-386 255 251 260" style="enable-background:new -386 255 251 260;" xml:space="preserve">
<metadata><?xpacket begin="﻿" id="W5M0MpCehiHzreSzNTczkc9d"?>
<x:xmpmeta xmlns:x="adobe:ns:meta/" x:xmptk="Adobe XMP Core 5.6-c067 79.157747, 2015/03/30-23:40:42        ">
   <rdf:RDF xmlns:rdf="http://www.w3.org/1999/02/22-rdf-syntax-ns#">
      <rdf:Description rdf:about=""/>
   </rdf:RDF>
</x:xmpmeta>
                                                                                                    
                                                                                                    
                                                                                                    
                                                                                                    
                                                                                                    
                                                                                                    
                                                                                                    
                                                                                                    
                                                                                                    
                                                                                                    
                                                                                                    
                                                                                                    
                                                                                                    
                                                                                                    
                                                                                                    
                                                                                                    
                                                                                                    
                                                                                                    
                                                                                                    
                                                                                                    
                           
<?xpacket end="w"?></metadata>
<style type="text/css">
	.st0{fill:#4C4B4B;stroke:#A5A0A0;stroke-width:4;stroke-miterlimit:10;}
</style>
<path class="st0" d="M-186,436.9c9.3-4.4,15.7-14.2,15.7-25.5c0-15.4-12-28-26.7-28c-0.1,0-0.1,0-0.2,0c11.5-8,18.9-20.2,18.9-33.8
	c0-23.4-21.6-42.5-48.8-43.8c-8.2-13.1-22.3-21.8-38.4-21.8c-13.9,0-26.4,6.5-34.8,16.6c-4.9-1.5-10.1-2.3-15.5-2.3
	c-30.1,0.1-54.5,24.7-54.5,55.1c0,30.4,24.4,55,54.5,55c9.7,0,18.8-2.6,26.7-7c7.9,9.3,19,15,31.4,15c16,0,29.9-9.6,37.3-23.8
	c1.5-0.2,2.9-0.5,4.3-0.9c-4.8,5.1-7.7,12-7.7,19.7c0,12.8,8.3,23.6,19.5,27c-4.5,3.4-7.4,8.8-7.4,15c0,1.8,0.3,3.6,0.7,5.3
	c-1.4-0.5-2.9-0.8-4.4-0.8c-7.4,0-13.4,6.3-13.4,14s6,14,13.4,14s13.4-6.3,13.4-14c0-0.7-0.1-1.4-0.2-2.1c2.4,1.3,5.2,2.1,8.1,2.1
	c9.8,0,17.7-8.3,17.7-18.5C-176.3,446.2-180.3,439.9-186,436.9z M-219.4,389.7c-1.2,0.2-2.3,1-2.9,2.1
	c-7.1,13.5-20.2,21.8-34.2,21.8c-10.9,0-21.1-4.9-28.7-13.7c-0.8-0.9-1.9-1.4-3-1.4c-0.7,0-1.4,0.2-2,0.5c-7.6,4.3-16.2,6.6-25,6.6
	c-28.1,0.1-51-23-51-51.5c0-28.4,22.9-51.6,51-51.6c5,0,9.8,0.7,14.6,2.1c0.4,0.1,0.8,0.2,1.1,0.2c1.2,0,2.3-0.5,3.1-1.5
	c8.1-9.8,19.7-15.4,32-15.4c14.4,0,27.5,7.5,35.4,20.1c0.7,1.1,1.9,1.8,3.2,1.9c25.6,1.2,45.5,18.9,45.5,40.2
	C-180.3,369.5-196.8,386.1-219.4,389.7z M-219.8,411.4c0-13.2,10.2-24,22.7-24s22.7,10.8,22.7,24c0,11.7-7.9,21.4-18.4,23.6
	c-0.4,0-0.9-0.1-1.3-0.1c-1.4,0-2.7,0.2-4,0.5C-210.1,434.8-219.8,424.3-219.8,411.4z M-215.4,481.9c-5.2,0-9.4-4.5-9.4-10
	s4.2-10,9.4-10c5.2,0,9.4,4.5,9.4,10S-210.2,481.9-215.4,481.9z M-194,467.9c-7.6,0-13.7-6.5-13.7-14.5c0-6.7,4.3-12.3,10.2-14
	c0.2,0,0.3,0,0.5,0c1.6,0,3.1-0.1,4.6-0.4c6.8,0.8,12.1,7,12.1,14.4C-180.3,461.4-186.4,467.9-194,467.9z"/>
</svg>
