<!-- Generator: Adobe Illustrator 19.1.0, SVG Export Plug-In  -->
<svg version="1.1"
	 xmlns="http://www.w3.org/2000/svg" xmlns:xlink="http://www.w3.org/1999/xlink" xmlns:a="http://ns.adobe.com/AdobeSVGViewerExtensions/3.0/"
	 x="0px" y="0px" viewBox="0 0 182.5 182.5" style="enable-background:new 0 0 182.5 182.5;"
	 xml:space="preserve">
<style type="text/css">
	.st0{fill:none;stroke:#FFFFFF;stroke-width:5;stroke-miterlimit:10;}
	.st1{fill:#FFFFFF;stroke:#FFFFFF;stroke-miterlimit:10;}
</style>
<defs>
</defs>
<g>
	<path class="st0" d="M91.2,2.5c-49,0-88.7,39.7-88.7,88.7S42.2,180,91.2,180c49,0,88.7-39.7,88.7-88.7S140.3,2.5,91.2,2.5z
		 M147.6,81.4l-51.4,50.3c-1.6,1.6-4.1,1.6-5.7,0.2c-0.5-0.2-0.9-0.4-1.3-0.8L34.6,82.3c-1.8-1.6-1.9-4.3-0.3-6
		c1.6-1.8,4.3-1.9,6-0.3L92.9,123l48.8-47.7c1.7-1.6,4.4-1.6,6,0.1C149.3,77,149.3,79.7,147.6,81.4z"/>
	<path class="st1" d="M141.6,75.3L92.9,123L40.3,75.9c-1.8-1.6-4.5-1.4-6,0.3c-1.6,1.8-1.4,4.5,0.3,6l54.5,48.9
		c0.4,0.4,0.9,0.6,1.3,0.8c1.7,1.4,4.1,1.4,5.7-0.2l51.4-50.3c1.7-1.6,1.7-4.3,0.1-6C146,73.7,143.3,73.7,141.6,75.3z"/>
</g>
</svg>
