<!-- Generator: Adobe Illustrator 19.1.0, SVG Export Plug-In  -->
<svg version="1.1"
	 xmlns="http://www.w3.org/2000/svg" xmlns:xlink="http://www.w3.org/1999/xlink" xmlns:a="http://ns.adobe.com/AdobeSVGViewerExtensions/3.0/"
	 x="0px" y="0px" viewBox="0 0 194.9 172.5" style="enable-background:new 0 0 194.9 172.5;"
	 xml:space="preserve">
<style type="text/css">
	.st0{fill:#969696;}
</style>
<defs>
</defs>
<g>
	<path class="st0" d="M194.9,0H0v152.9h86.7L74.3,159l-19.8,9.6v3.9h47.6h48.4V169L129.8,159l-12.5-6.1h77.5V0z M179.9,137.9H15V15
		h164.9V137.9z"/>
	<rect x="23.5" y="22.5" class="st0" width="48" height="48.9"/>
	<rect x="119.5" y="85.5" class="st0" width="48" height="48.9"/>
	<rect x="89.5" y="28.5" class="st0" width="78" height="8"/>
	<rect x="89.5" y="43" class="st0" width="78" height="8"/>
	<rect x="89.5" y="57.5" class="st0" width="78" height="8"/>
	<rect x="89.5" y="72.4" class="st0" width="78" height="8"/>
	<rect x="23.5" y="86" class="st0" width="92" height="8"/>
	<rect x="23.5" y="99.5" class="st0" width="92" height="8"/>
	<rect x="23.5" y="113.5" class="st0" width="92" height="8"/>
	<rect x="23.5" y="126.5" class="st0" width="92" height="8"/>
</g>
</svg>
