<?xml version="1.0" encoding="utf-8"?>
<!-- Generator: Adobe Illustrator 19.1.0, SVG Export Plug-In . SVG Version: 6.00 Build 0)  -->
<svg version="1.1" id="Layer_1" xmlns="http://www.w3.org/2000/svg" xmlns:xlink="http://www.w3.org/1999/xlink" x="0px" y="0px"
	 viewBox="-368 248 285.9 273" style="enable-background:new -368 248 285.9 273;" xml:space="preserve">
<metadata><?xpacket begin="﻿" id="W5M0MpCehiHzreSzNTczkc9d"?>
<x:xmpmeta xmlns:x="adobe:ns:meta/" x:xmptk="Adobe XMP Core 5.6-c067 79.157747, 2015/03/30-23:40:42        ">
   <rdf:RDF xmlns:rdf="http://www.w3.org/1999/02/22-rdf-syntax-ns#">
      <rdf:Description rdf:about=""/>
   </rdf:RDF>
</x:xmpmeta>
                                                                                                    
                                                                                                    
                                                                                                    
                                                                                                    
                                                                                                    
                                                                                                    
                                                                                                    
                                                                                                    
                                                                                                    
                                                                                                    
                                                                                                    
                                                                                                    
                                                                                                    
                                                                                                    
                                                                                                    
                                                                                                    
                                                                                                    
                                                                                                    
                                                                                                    
                                                                                                    
                           
<?xpacket end="w"?></metadata>
<style type="text/css">
	.st0{fill:#969696;}
</style>
<g>
	<path class="st0" d="M-85.7,291.8l-7.1-8.9c-5.5-6.9-15.6-8-22.5-2.4L-247.6,387c-1.2,0.4-2.3,1.3-3,2.6l-11,19.9l-11,19.9
		c-1.6,2.9,0.4,5.5,3.6,4.7l22.1-5.4l16.9-4.1c3.3-0.1,6.6-1.3,9.4-3.5l132.5-106.8C-81.2,308.8-80.1,298.7-85.7,291.8z
		 M-93.1,308.1L-224,413.4l-8.4-11.1l-8.2-10.7l130.3-104.8c1.5-1.2,3.2-1.8,5-1.8c2.3,0,4.7,1,6.2,3l2,2.5l-120.4,93.4l4.3,5.5
		l120.5-93.5l0.7,0.9C-89.1,300.3-89.7,305.3-93.1,308.1z"/>
	<path class="st0" d="M-178,468.7l-25.4-0.2l-35.4-0.2l10,34l2.6,8.7H-351c-3.9,0-7-3.1-7-7V265c0-3.9,3.1-7,7-7h166
		c3.9,0,7,3.1,7,7v55.9l10-8V265c0-9.4-7.6-17-17-17h-166c-9.4,0-17,7.6-17,17v239c0,9.4,7.6,17,17,17h104v-0.7h29.2l48.4-49.5h-0.2
		l1.6-2.1v-80l-10,8L-178,468.7L-178,468.7z"/>
</g>
</svg>
